<svg id="Capa_1" enable-background="new 0 0 512 512" height="512" viewBox="0 0 512 512" width="512" xmlns="http://www.w3.org/2000/svg"><g><path d="m256 37.5 158.5 467h30v-467z" fill="#db2116"/><path d="m67.5 37.5h347v467h-347z" fill="#ff3a2f"/><path d="m414.5 7.5-60 90h30c33.137 0 60-26.863 60-60v-30z" fill="#a41910"/><path d="m414.5 37.5v-30h-347v30c0 33.137 26.863 60 60 60h227c33.137 0 60-26.863 60-60z" fill="#db2116"/><path d="m384.5 301c0-9.431-4.355-17.841-11.16-23.34 4.182-7.685 4.988-17.122 1.379-25.834s-10.851-14.816-19.243-17.293c.923-8.7-1.944-17.727-8.613-24.396-6.669-6.668-15.695-9.536-24.396-8.613-2.477-8.391-8.58-15.634-17.293-19.242-8.713-3.609-18.149-2.803-25.834 1.379-5.5-6.805-13.91-11.16-23.34-11.16s-17.841 4.355-23.34 11.16c-7.685-4.182-17.122-4.988-25.834-1.379-8.713 3.609-14.816 10.851-17.293 19.242-8.701-.923-17.727 1.944-24.396 8.613s-9.536 15.695-8.613 24.396c-8.391 2.477-15.634 8.58-19.243 17.293s-2.804 18.149 1.379 25.834c-6.805 5.5-11.16 13.91-11.16 23.34s4.355 17.841 11.16 23.34c-4.182 7.685-4.988 17.122-1.379 25.834s10.851 14.816 19.243 17.293c-.923 8.7 1.944 17.727 8.613 24.396 6.669 6.668 15.695 9.536 24.396 8.613 2.477 8.392 8.58 15.634 17.293 19.243s18.149 2.803 25.834-1.379c5.5 6.805 13.91 11.16 23.34 11.16s17.841-4.355 23.34-11.16c7.685 4.182 17.122 4.988 25.834 1.379 8.713-3.609 14.816-10.851 17.293-19.243 8.7.923 17.727-1.944 24.396-8.613 6.668-6.669 9.536-15.695 8.613-24.396 8.391-2.477 15.634-8.58 19.243-17.293s2.804-18.149-1.379-25.834c6.805-5.499 11.16-13.909 11.16-23.34zm-128.5 87c-48.049 0-87-38.951-87-87s38.951-87 87-87 87 38.951 87 87-38.951 87-87 87z" fill="#ffba48"/><path d="m444.5 0h-377c-4.142 0-7.5 3.357-7.5 7.5v497c0 4.143 3.358 7.5 7.5 7.5h377c4.142 0 7.5-3.357 7.5-7.5v-497c0-4.143-3.358-7.5-7.5-7.5zm-369.5 15h362v22.5c0 28.948-23.551 52.5-52.5 52.5h-257c-28.949 0-52.5-23.552-52.5-52.5zm362 482h-362v-417.139c12.384 15.319 31.313 25.139 52.5 25.139h257c21.187 0 40.116-9.82 52.5-25.139z"/><path d="m382.334 275.871c3.108-8.697 2.909-18.235-.686-26.916-3.596-8.681-10.2-15.565-18.547-19.518-.457-9.223-4.291-17.96-10.935-24.604-6.644-6.643-15.379-10.477-24.604-10.934-3.952-8.348-10.837-14.951-19.517-18.547-8.681-3.597-18.218-3.795-26.916-.687-6.845-6.198-15.733-9.665-25.129-9.665s-18.284 3.466-25.129 9.666c-8.698-3.106-18.235-2.909-26.916.687-8.68 3.596-15.565 10.199-19.517 18.547-9.224.457-17.961 4.291-24.604 10.935s-10.477 15.381-10.934 24.604c-8.347 3.952-14.951 10.837-18.547 19.518-3.595 8.681-3.794 18.219-.686 26.916-6.2 6.843-9.667 15.731-9.667 25.127s3.467 18.284 9.666 25.129c-3.108 8.697-2.909 18.235.686 26.916 3.596 8.681 10.2 15.565 18.547 19.518.457 9.223 4.291 17.96 10.935 24.604s15.38 10.477 24.604 10.934c3.952 8.347 10.837 14.951 19.517 18.547 8.681 3.596 18.217 3.793 26.916.687 6.845 6.198 15.733 9.665 25.129 9.665s18.284-3.466 25.129-9.666c8.699 3.107 18.236 2.911 26.916-.687 8.68-3.596 15.565-10.2 19.517-18.547 9.223-.457 17.96-4.291 24.604-10.935 6.643-6.644 10.477-15.381 10.934-24.604 8.347-3.952 14.951-10.837 18.547-19.518 3.595-8.681 3.794-18.219.686-26.916 6.2-6.843 9.667-15.731 9.667-25.127s-3.467-18.284-9.666-25.129zm-13.708 42.636c-2.816 2.275-3.604 6.237-1.874 9.418 3.271 6.011 3.649 13.075 1.038 19.38s-7.874 11.032-14.437 12.97c-3.472 1.025-5.716 4.385-5.334 7.984.722 6.805-1.632 13.475-6.458 18.301-4.827 4.825-11.5 7.182-18.302 6.458-3.592-.385-6.959 1.862-7.984 5.335-1.937 6.563-6.665 11.825-12.97 14.438-6.304 2.61-13.367 2.232-19.379-1.038-3.178-1.73-7.141-.943-9.417 1.874-4.303 5.32-10.684 8.373-17.509 8.373s-13.206-3.053-17.507-8.374c-1.466-1.814-3.631-2.786-5.837-2.786-1.218 0-2.449.297-3.581.912-6.012 3.27-13.075 3.648-19.379 1.038-6.306-2.612-11.033-7.875-12.97-14.438-1.025-3.472-4.38-5.715-7.984-5.335-6.804.722-13.475-1.632-18.301-6.457-4.826-4.827-7.18-11.497-6.458-18.302.382-3.6-1.862-6.959-5.334-7.984-6.563-1.938-11.825-6.665-14.437-12.97s-2.233-13.369 1.038-19.38c1.73-3.181.942-7.143-1.874-9.418-5.324-4.3-8.376-10.681-8.376-17.506s3.052-13.206 8.374-17.507c2.816-2.275 3.604-6.237 1.874-9.418-3.271-6.011-3.649-13.075-1.038-19.38s7.874-11.032 14.437-12.97c3.472-1.025 5.716-4.385 5.334-7.984-.722-6.805 1.632-13.475 6.458-18.301s11.495-7.176 18.302-6.459c3.595.376 6.958-1.863 7.983-5.335 1.938-6.563 6.665-11.824 12.971-14.437 6.304-2.611 13.367-2.232 19.379 1.038 3.179 1.731 7.142.943 9.417-1.874 4.303-5.32 10.684-8.373 17.509-8.373s13.206 3.053 17.507 8.374c2.275 2.815 6.237 3.602 9.417 1.874 6.011-3.271 13.075-3.65 19.379-1.038 6.306 2.612 11.033 7.874 12.971 14.437 1.025 3.472 4.382 5.713 7.983 5.335 6.81-.717 13.476 1.634 18.302 6.458 4.826 4.827 7.18 11.497 6.458 18.302-.382 3.6 1.862 6.959 5.334 7.984 6.563 1.938 11.825 6.665 14.437 12.97s2.233 13.369-1.038 19.38c-1.73 3.181-.942 7.143 1.874 9.418 5.324 4.3 8.376 10.681 8.376 17.506s-3.052 13.206-8.374 17.507z"/><path d="m256 206.5c-19.569 0-38.348 5.934-54.308 17.159-3.388 2.384-4.203 7.062-1.819 10.449 2.383 3.389 7.062 4.205 10.449 1.82 13.42-9.439 29.215-14.428 45.678-14.428 43.836 0 79.5 35.663 79.5 79.5s-35.664 79.5-79.5 79.5-79.5-35.663-79.5-79.5c0-16.463 4.989-32.258 14.429-45.679 2.383-3.388 1.568-8.065-1.819-10.449-3.387-2.383-8.066-1.568-10.449 1.82-11.227 15.96-17.16 34.739-17.16 54.308 0 52.107 42.393 94.5 94.5 94.5s94.5-42.393 94.5-94.5-42.394-94.5-94.501-94.5z"/><path d="m233.5 308.5h45c4.142 0 7.5-3.357 7.5-7.5s-3.358-7.5-7.5-7.5h-45c-4.142 0-7.5 3.357-7.5 7.5s3.358 7.5 7.5 7.5z"/><path d="m233.5 338.5h45c4.142 0 7.5-3.357 7.5-7.5s-3.358-7.5-7.5-7.5h-45c-4.142 0-7.5 3.357-7.5 7.5s3.358 7.5 7.5 7.5z"/><path d="m233.5 278.5h45c4.142 0 7.5-3.357 7.5-7.5s-3.358-7.5-7.5-7.5h-45c-4.142 0-7.5 3.357-7.5 7.5s3.358 7.5 7.5 7.5z"/></g></svg>